{
  "accessors": [
    {
      "bufferView": 1,
      "componentType": 5126,
      "count": 88,
      "max": [
        2.1051990985870361,
        1.0074570178985596,
        4.277924290363444e-07
      ],
      "min": [
        -2.1051990985870361,
        -0.95424044132232666,
        -0.047667007893323898
      ],
      "type": "VEC3"
    },
    {
      "bufferView": 1,
      "byteOffset": 1056,
      "componentType": 5126,
      "count": 88,
      "max": [
        0.036685917526483536,
        0.033008333295583725,
        0.99916845560073853
      ],
      "min": [
        -0.036685917526483536,
        -0.036107402294874191,
        0.99867439270019531
      ],
      "type": "VEC3"
    },
    {
      "bufferView": 0,
      "componentType": 5125,
      "count": 216,
      "max": [
        87
      ],
      "min": [
        0
      ],
      "type": "SCALAR"
    },
    {
      "bufferView": 1,
      "byteOffset": 2112,
      "componentType": 5126,
      "count": 416,
      "max": [
        2.1532192230224609,
        0.39014047384262085,
        3.7693266868591309
      ],
      "min": [
        -2.1532192230224609,
        -0.2642267644405365,
        1.7047061362518434e-07
      ],
      "type": "VEC3"
    },
    {
      "bufferView": 1,
      "byteOffset": 7104,
      "componentType": 5126,
      "count": 416,
      "max": [
        0.99518424272537231,
        0.9997517466545105,
        1
      ],
      "min": [
        -0.99518424272537231,
        -0.9998551607131958,
        -1
      ],
      "type": "VEC3"
    },
    {
      "bufferView": 0,
      "byteOffset": 864,
      "componentType": 5125,
      "count": 630,
      "max": [
        415
      ],
      "min": [
        0
      ],
      "type": "SCALAR"
    }
  ],
  "asset": {
    "extras": {
      "author": "EJLblob603 (https://sketchfab.com/EJLblob603)",
      "license": "CC-BY-4.0 (http://creativecommons.org/licenses/by/4.0/)",
      "source": "https://sketchfab.com/models/1f41a813c65441b5ac500a4408ad2dd8",
      "title": "Reflective Sun Glasses"
    },
    "generator": "Sketchfab-3.53.2",
    "version": "2.0"
  },
  "bufferViews": [
    {
      "buffer": 0,
      "byteLength": 3384,
      "byteOffset": 0,
      "name": "floatBufferViews",
      "target": 34963
    },
    {
      "buffer": 0,
      "byteLength": 12096,
      "byteOffset": 3384,
      "byteStride": 12,
      "name": "floatBufferViews",
      "target": 34962
    }
  ],
  "buffers": [
    {
      "byteLength": 15480,
      "uri": "scene.bin"
    }
  ],
  "materials": [
    {
      "doubleSided": true,
      "emissiveFactor": [
        0,
        0,
        0
      ],
      "name": "eyes",
      "pbrMetallicRoughness": {
        "baseColorFactor": [
          0.023650399999999999,
          0.014855999999999999,
          0.0026667800000000001,
          1
        ],
        "metallicFactor": 0,
        "roughnessFactor": 0.82394172570000002
      }
    },
    {
      "doubleSided": true,
      "emissiveFactor": [
        0,
        0,
        0
      ],
      "name": "earnose",
      "pbrMetallicRoughness": {
        "baseColorFactor": [
          0.0188486,
          0.0188486,
          0.0188486,
          1
        ],
        "metallicFactor": 0,
        "roughnessFactor": 0.82394172570000002
      }
    }
  ],
  "meshes": [
    {
      "name": "sunglasses_eyes_0",
      "primitives": [
        {
          "attributes": {
            "NORMAL": 1,
            "POSITION": 0
          },
          "indices": 2,
          "material": 0,
          "mode": 4
        }
      ]
    },
    {
      "name": "sunglasses_ear&nose_0",
      "primitives": [
        {
          "attributes": {
            "NORMAL": 4,
            "POSITION": 3
          },
          "indices": 5,
          "material": 1,
          "mode": 4
        }
      ]
    }
  ],
  "nodes": [
    {
      "children": [
        1
      ],
      "name": "RootNode (gltf orientation matrix)",
      "rotation": [
        -0.70710678118654746,
        -0,
        -0,
        0.70710678118654757
      ]
    },
    {
      "children": [
        2
      ],
      "name": "RootNode (model correction matrix)"
    },
    {
      "children": [
        3
      ],
      "matrix": [
        1,
        0,
        0,
        0,
        0,
        0,
        1,
        0,
        0,
        -1,
        0,
        0,
        0,
        0,
        0,
        1
      ],
      "name": "8ea6065f71824900bbe53574a3bb201f.fbx"
    },
    {
      "children": [
        4
      ],
      "name": "RootNode"
    },
    {
      "children": [
        5,
        6
      ],
      "matrix": [
        -117.02213391877987,
        -2.8743320031223747,
        0.74256559837829916,
        0,
        -2.45557656667278,
        99.969852848770643,
        -0.013820250178813668,
        0,
        -0.63381668287823234,
        -0.02939268698121832,
        -99.997987042152275,
        0,
        30.393552780151367,
        0,
        0,
        1
      ],
      "name": "sunglasses"
    },
    {
      "mesh": 0,
      "name": "sunglasses_eyes_0"
    },
    {
      "mesh": 1,
      "name": "sunglasses_ear&nose_0"
    }
  ],
  "scene": 0,
  "scenes": [
    {
      "name": "OSG_Scene",
      "nodes": [
        0
      ]
    }
  ]
}

